<svg xmlns="http://www.w3.org/2000/svg" viewBox="0 0 16 16" id="Cell"><path style="text-indent:0;text-align:start;line-height:normal;text-transform:none;block-progression:tb" d="M6.416 3.002 4.25 4.252a2.505 2.505 0 0 0-.916 3.414l2.498 4.326a2.51 2.51 0 0 0 3.42.926l2.164-1.248-1.5-2.6-1.291.744c-.308.176-.37.108-.477.034a.703.703 0 0 1-.177-.19l-.006-.012-1.52-2.634-.004-.01s-.072-.134-.086-.273c-.013-.14-.05-.207.223-.358h.004l1.334-.77-.75-1.3zm3.314.025-.26.965a3.494 3.494 0 0 1 2.477 4.287l.965.26a4.489 4.489 0 0 0-.453-3.414A4.482 4.482 0 0 0 9.73 3.027zM9.213 4.96l-.26.967a1.491 1.491 0 0 1 1.06 1.836l.967.26a2.495 2.495 0 0 0-.253-1.897 2.489 2.489 0 0 0-1.514-1.166z" color="#000" font-family="sans-serif" font-weight="400" overflow="visible" fill="#595bd4" class="color000000 svgShape"></path></svg>